<svg xmlns="http://www.w3.org/2000/svg" width="39" height="27" viewBox="0 0 39 27">
    <path fill="#D0021B" fill-rule="nonzero" d="M31.826 19.742c-.951 0-1.855.379-2.536 1.064a3.63 3.63 0 0 0-1.063 2.563c0 .967.373 1.87 1.063 2.563a3.578 3.578 0 0 0 2.536 1.064c1.95 0 3.536-1.628 3.536-3.627 0-1.999-1.586-3.627-3.536-3.627zm0 5.642a2.037 2.037 0 0 1-2.013-2.015c0-1.096.92-2.015 2.013-2.015 1.078 0 1.95.903 1.95 2.015s-.872 2.015-1.95 2.015zm.92-17.723a.763.763 0 0 0-.531-.21h-4.067a.802.802 0 0 0-.793.806v6.61c0 .442.357.805.793.805h6.453a.802.802 0 0 0 .792-.806v-4.425a.813.813 0 0 0-.261-.596L32.746 7.66zm1.062 6.4H28.94V9.054h2.964l1.903 1.741v3.264zm-21.34 5.681c-.95 0-1.854.379-2.536 1.064A3.63 3.63 0 0 0 8.87 23.37c0 .967.373 1.87 1.062 2.563a3.578 3.578 0 0 0 2.537 1.064c1.95 0 3.535-1.628 3.535-3.627 0-1.999-1.585-3.627-3.535-3.627zm0 5.642a2.037 2.037 0 0 1-2.013-2.015c0-1.096.92-2.015 2.014-2.015 1.078 0 1.95.903 1.95 2.015s-.872 2.015-1.95 2.015zm-5.286-4.65H5.588V18.59a.802.802 0 0 0-.792-.806.802.802 0 0 0-.793.806v2.95c0 .443.357.806.793.806h2.386a.802.802 0 0 0 .792-.806.802.802 0 0 0-.792-.806zM11.2 16.34a.802.802 0 0 0-.793-.806H.793a.802.802 0 0 0-.793.806c0 .443.357.806.793.806h9.615a.797.797 0 0 0 .793-.806zm-8.8-2.91l9.616.057a.807.807 0 0 0 .8-.798.792.792 0 0 0-.784-.814l-9.615-.056H2.41a.795.795 0 0 0-.793.797.792.792 0 0 0 .785.814zM4.02 9.772h9.615a.802.802 0 0 0 .793-.806.802.802 0 0 0-.793-.806H4.02a.802.802 0 0 0-.793.806c0 .444.357.806.793.806zm34.616-1.088l-5.675-4.78a.773.773 0 0 0-.508-.184h-6.674V.818a.802.802 0 0 0-.793-.806H4.795a.802.802 0 0 0-.792.806v5.9c0 .443.357.806.793.806a.802.802 0 0 0 .792-.806V1.624h18.613v19.11h-6.5a.802.802 0 0 0-.793.806c0 .443.357.806.793.806h9.678a.802.802 0 0 0 .793-.806.802.802 0 0 0-.793-.806h-1.593V5.33h6.389l5.168 4.353-.055 11.033h-.825a.802.802 0 0 0-.792.806c0 .444.356.806.792.806h1.61a.795.795 0 0 0 .792-.798l.064-12.218a.857.857 0 0 0-.294-.629z"/>
</svg>
