<svg xmlns="http://www.w3.org/2000/svg" width="305" height="528" viewBox="0 0 305 528">
    <g fill="#B8B8B8" fill-rule="nonzero" opacity=".32">
        <path d="M413.075 480.586c-.8 2.033-2.36 6.117-3.12 8.17-17.322 5.817-34.469 12.208-50.598 20.743-18.77 6.075-38.13 10.354-56.244 18.504-3.78-8.244-8.13-16.214-12.796-24.036C331.152 493.4 370.93 478.56 409 460.42c1.067 6.783 2.353 13.52 4.074 20.165zM435.365 119.853c26.875 44.264 39.745 95.113 53.593 144.6-8.114 3.732-15.875 8.07-23.78 12.195-7.577-20.137-9.342-42.327-20.738-61.002-14.51 4.826-27.64 12.9-42.002 18.04-86.547 31.753-172.903 63.938-259.409 95.709-12.044 3.324-24.393 5.62-35.785 11.017 3.809 21.277 14.456 40.192 22.796 59.849-8.695 2.135-17.475 4.033-26.124 6.386-23.504-46.13-40.19-95.419-51.242-145.96 7.98-3.549 16.248-6.767 23.41-11.925 5.221 20.56 9.29 41.91 20.324 60.416 30.108-11.356 60.787-21.414 89.808-35.488 65.22-23.03 129.118-50.067 195.4-69.803 17.66-6.747 35.536-12.902 53.113-19.786-6.04-20.696-17.587-39.049-23.964-59.656 8.262-1.208 16.363-3.226 24.6-4.592z"/>
        <path d="M407.003 402.812c1.182 8.706 2.898 17.318 5.01 25.818-45.197 24.957-94.312 42.241-144.372 54.515-3.732-8.176-7.974-16.098-11.902-24.17 20.642-5.603 41.174-11.602 61.098-19.555-4.813-15.313-10.416-30.404-18.04-44.521-10.833-28.879-21.057-58.014-31.241-87.13 11.436-4.247 22.912-8.475 34.326-12.782 18.211 42.685 28.364 88.048 45.216 131.229 21.18-4.027 41.033-13.192 59.905-23.404zM275.976 220.513c-11.817 4.3-23.613 8.66-35.302 13.315-9.83-29.529-21.435-58.406-30.87-88.046-3.411-15.937-8.996-31.211-14.837-46.358-21.476 3.444-39.333 16.907-59.835 23.418-1.258-8.77-2.914-17.529-4.372-26.293 46.432-21.189 93.121-43.243 143.667-52.21 4.425 7.24 8.161 14.799 12.506 22.001-19.348 8.874-40.833 11.18-60.094 20.29 4.467 18.302 11.543 35.849 18.262 53.426 13.037 25.7 20.143 53.811 30.875 80.457zM34.195 276.869c12.35 44.172 26.7 88.047 46.45 129.473-11.606 2.211-23.269 4.544-34.432 8.536l-4.423-2.063c.194-.942.605-2.767.84-3.69-12.407-31.558-24.48-63.305-34.624-95.726-2.183-5.396-2.503-12.48-7.97-15.767l3.597-7.717c11.472-.454 20.76-7.878 30.562-13.046zM241.439.866c3.407 6.562 7.19 12.955 10.913 19.369-13.665 4.953-26.977 11.056-41.236 14.107-27.42 5.975-51.01 22.155-77.927 29.694-1.32-7.755-2.682-15.53-4.061-23.264 14.28-7.227 28.316-15.306 43.922-19.552 22.816-6.792 44.147-19.397 68.389-20.354z"/>
    </g>
</svg>
