<svg xmlns="http://www.w3.org/2000/svg" width="21" height="26" viewBox="0 0 21 26">
    <g fill="#ff0000" fill-rule="nonzero">
        <path d="M14.084 9.437a.605.605 0 0 0-.603.606v11.454c0 .335.27.606.603.606a.605.605 0 0 0 .604-.606V10.043a.605.605 0 0 0-.604-.606zM6.964 9.437a.605.605 0 0 0-.604.606v11.454a.605.605 0 0 0 1.207 0V10.043a.605.605 0 0 0-.603-.606z"/>
        <path d="M1.774 7.765v14.932c0 .883.322 1.711.885 2.306.56.596 1.34.935 2.156.936h11.418a2.965 2.965 0 0 0 2.156-.936c.563-.595.885-1.423.885-2.306V7.765a2.315 2.315 0 0 0 1.694-2.537 2.309 2.309 0 0 0-2.285-2.016h-3.09v-.757a2.386 2.386 0 0 0-.696-1.7c-.45-.45-1.06-.7-1.694-.694H7.845A2.366 2.366 0 0 0 6.15.756c-.449.45-.7 1.061-.696 1.699v.757h-3.09A2.309 2.309 0 0 0 .08 5.228a2.315 2.315 0 0 0 1.694 2.537zm14.459 16.962H4.815c-1.031 0-1.834-.89-1.834-2.03V7.818h15.086v14.879c0 1.14-.802 2.03-1.834 2.03zM6.662 2.455a1.17 1.17 0 0 1 .342-.843 1.16 1.16 0 0 1 .84-.34h5.36a1.169 1.169 0 0 1 1.183 1.182v.758H6.661v-.757zm-4.297 1.97h16.318c.6 0 1.086.488 1.086 1.09 0 .603-.486 1.091-1.086 1.091H2.365c-.6 0-1.086-.488-1.086-1.09 0-.603.487-1.092 1.086-1.092z"/>
        <path d="M10.524 9.437a.605.605 0 0 0-.603.606v11.454c0 .335.27.606.603.606a.605.605 0 0 0 .603-.606V10.043a.605.605 0 0 0-.603-.606z"/>
    </g>
</svg>
