<svg xmlns="http://www.w3.org/2000/svg" width="49" height="57" viewBox="0 0 49 57">
    <g fill="#000" fill-rule="nonzero" opacity=".8">
        <path d="M24.53 18.107c-5.836 0-10.584 4.769-10.584 10.63 0 5.862 4.748 10.63 10.584 10.63 5.835 0 10.582-4.768 10.582-10.63 0-5.861-4.747-10.63-10.582-10.63zm6.283 8.628l-7.582 7.616a1.622 1.622 0 0 1-2.305 0l-2.897-2.91a1.642 1.642 0 0 1 0-2.315 1.624 1.624 0 0 1 2.304 0l1.745 1.753 6.43-6.458a1.624 1.624 0 0 1 2.305 0 1.642 1.642 0 0 1 0 2.314z"/>
        <path d="M48.124 15.978l-.001-.043a58.41 58.41 0 0 1-.05-1.734c-.046-3.076-2.48-5.62-5.543-5.793-6.386-.358-11.327-2.45-15.548-6.582l-.036-.034a3.543 3.543 0 0 0-4.831 0l-.036.034C17.858 5.96 12.917 8.05 6.53 8.41c-3.063.171-5.498 2.716-5.543 5.793-.01.626-.026 1.193-.05 1.733l-.002.1C.81 22.578.657 30.718 3.368 38.107c1.491 4.063 3.75 7.595 6.71 10.499 3.374 3.306 7.792 5.931 13.133 7.802a4.047 4.047 0 0 0 1.32.225 3.972 3.972 0 0 0 1.321-.226c5.334-1.874 9.748-4.5 13.118-7.806 2.96-2.905 5.218-6.437 6.71-10.502 2.722-7.41 2.568-15.566 2.444-22.12zM24.53 42.641c-7.633 0-13.843-6.237-13.843-13.904s6.21-13.904 13.843-13.904c7.632 0 13.842 6.237 13.842 13.904s-6.21 13.904-13.842 13.904z"/>
    </g>
</svg>
