<svg xmlns="http://www.w3.org/2000/svg" width="50" height="51" viewBox="0 0 50 51">
    <g fill="#000" fill-rule="nonzero" opacity=".8">
        <path d="M48.986 48.243h-4.287V46.95a.974.974 0 1 0-1.948 0v1.294H25.994V46.95a.974.974 0 1 0-1.948 0v1.294H7.289V46.95a.974.974 0 1 0-1.948 0v1.294H1.054a.974.974 0 1 0 0 1.949h47.932a.974.974 0 1 0 0-1.949z"/>
        <path d="M48.986 42.008H35.094a26.66 26.66 0 0 0 7.304-4.436v.802a.974.974 0 1 0 1.948 0v-3.058a.974.974 0 0 0-.974-.975h-3.059a.974.974 0 1 0 0 1.949h.582c-4.455 3.702-10.01 5.718-15.875 5.718S13.6 39.992 9.145 36.29h.582a.974.974 0 1 0 0-1.949H6.668a.974.974 0 0 0-.974.975v3.058a.974.974 0 1 0 1.948 0v-.802a26.679 26.679 0 0 0 7.304 4.436H4.951a.974.974 0 1 0 0 1.949h9.755v1.294a.974.974 0 1 0 1.948 0v-1.294h16.757v1.294a.974.974 0 1 0 1.948 0v-1.294h13.627a.974.974 0 1 0 0-1.949zM1.054 43.957a.982.982 0 0 0 .689-.286.982.982 0 0 0 .285-.688.982.982 0 0 0-.285-.69.982.982 0 0 0-.689-.285.982.982 0 0 0-.689.286.982.982 0 0 0-.285.689c0 .256.104.507.285.688a.982.982 0 0 0 .69.286z"/>
        <path d="M25.02 37.82c5.55 0 10.064-4.504 10.064-10.04 0-2.294-.795-4.535-2.24-6.314l-.006-.008-6.244-8.018a1.946 1.946 0 0 0-1.54-.756h-.006c-.604 0-1.165.273-1.54.749l-6.27 7.975a.936.936 0 0 0-.04.055 10.038 10.038 0 0 0-2.242 6.317c0 5.536 4.514 10.04 10.064 10.04zM18.76 22.63a.978.978 0 0 0 .066-.091l6.217-7.906c.002-.002.009-.002.014.003l6.225 7.994a8.092 8.092 0 0 1 1.854 5.149c0 4.461-3.641 8.09-8.116 8.09s-8.116-3.629-8.116-8.09a8.09 8.09 0 0 1 1.855-5.149zM41.971 20.152c4.405 0 7.989-3.575 7.989-7.97 0-1.819-.63-3.597-1.776-5.01l-.004-.004L43.362.98a1.724 1.724 0 0 0-1.364-.668h-.005c-.535 0-1.032.241-1.363.662l-4.839 6.154a1.113 1.113 0 0 0-.035.048 7.97 7.97 0 0 0-1.773 5.007c0 4.394 3.583 7.969 7.988 7.969zm-4.66-11.8c.023-.027.044-.055.063-.084l4.619-5.874 4.633 5.95.03.04a6.02 6.02 0 0 1 1.356 3.799c0 3.32-2.71 6.02-6.04 6.02-3.331 0-6.04-2.7-6.04-6.02 0-1.396.49-2.757 1.38-3.831zM8.069 20.152c4.405 0 7.988-3.575 7.988-7.97a7.97 7.97 0 0 0-1.773-5.006 1.113 1.113 0 0 0-.035-.048L9.409.974A1.724 1.724 0 0 0 8.048.312h-.005A1.724 1.724 0 0 0 6.678.98L1.86 7.168l-.004.005a7.972 7.972 0 0 0-1.776 5.01c0 4.394 3.584 7.969 7.989 7.969zM3.383 8.383l.031-.04 4.633-5.95 4.62 5.875c.018.029.039.057.061.084a6.015 6.015 0 0 1 1.38 3.83c0 3.32-2.709 6.022-6.04 6.022-3.33 0-6.04-2.701-6.04-6.021a6.02 6.02 0 0 1 1.355-3.8z"/>
        <path d="M25.02 32.461c2.587 0 4.691-2.1 4.691-4.681a.974.974 0 1 0-1.948 0 2.74 2.74 0 0 1-2.743 2.733.974.974 0 1 0 0 1.948z"/>
    </g>
</svg>
