<svg xmlns="http://www.w3.org/2000/svg" width="39" height="39" viewBox="0 0 39 39">
    <g fill="#000" fill-rule="nonzero">
        <path d="M7.707 0h.474c.601.62 1.555 1.005 1.878 1.835-.367.84-1.244 1.383-1.908 2.003-2.315 1.651-4.014 3.955-5.973 5.977-.521-.737-1.06-1.46-1.578-2.201v-.265c1.864-2.274 3.908-4.414 6.197-6.263.37-.3.683-.664.91-1.086zM30.893.844c.18-.011.54-.037.72-.051 1.038 1.09 2.113 2.146 3.313 3.052 1.108 1.19 2.102 2.484 3.342 3.552-.484.569-.928 1.17-1.35 1.79-2.213-2.678-4.708-5.129-7.39-7.338.47-.315.929-.645 1.365-1.005zM3.146 11.705c2.37-3.556 5.72-6.293 8.935-9.056.561.477 1.156.906 1.74 1.354-1.241 1.27-2.837 2.176-3.835 3.68.866.918 1.926 1.618 2.81 2.514 5.387 5.368 10.8 10.707 16.185 16.071.668.785 1.27 1.63 2.07 2.293 1.457-1.027 2.499-2.484 3.677-3.794.462.576.91 1.167 1.386 1.732-2.627 3.369-5.727 6.337-9.118 8.927-.543-.473-1.071-.98-1.706-1.335 1.354-1.108 2.807-2.158 3.805-3.629-1.897-1.857-3.717-3.801-5.779-5.482-3.992-4.076-8.237-7.914-12.02-12.185-1.12-1.086-2.202-2.21-3.328-3.284-1.336 1.174-2.304 2.678-3.622 3.874-.378-.576-.81-1.111-1.2-1.68z"/>
        <path d="M25.26 4.029a20 20 0 0 0 1.755-1.277c3.438 2.513 6.44 5.588 9.1 8.909-.481.565-.925 1.16-1.391 1.735-1.138-1.35-2.3-2.678-3.589-3.893-.976.896-1.908 1.842-2.697 2.906-1.78 1.82-3.6 3.604-5.419 5.383-.716-.708-1.431-1.42-2.15-2.124 2.554-2.855 5.588-5.2 8.226-7.97-1.038-1.446-2.414-2.612-3.834-3.67zM16.198 20.221c.73.734 1.464 1.464 2.216 2.176-1.857 1.765-3.603 3.64-5.482 5.38-1.067.81-2.01 1.76-2.935 2.725 1.002 1.486 2.623 2.352 3.82 3.659-.61.4-1.204.829-1.806 1.243-3.188-2.733-6.45-5.456-8.872-8.923.385-.584.818-1.127 1.204-1.703 1.332 1.138 2.249 2.664 3.595 3.787 1.208-.972 2.268-2.114 3.343-3.229 1.46-1.871 3.306-3.383 4.917-5.115zM28.882 36.325c2.866-2.469 5.64-5.078 8.043-8.006.57.793 1.149 1.585 1.835 2.282v.404a9.028 9.028 0 0 1-.305.066c-1.922 2.033-3.87 4.047-5.936 5.94-.327.353-.844.624-.9 1.149h-.7c-.433-.844-1.31-1.28-2.037-1.835zM1.08 30.499c.371-.481.716-.984 1.065-1.483.844.844 1.761 1.622 2.484 2.576 1.398 1.831 3.423 3.024 4.92 4.763-.532.367-1.064.737-1.592 1.108-1.035-.811-2.125-1.574-2.983-2.587-1.3-1.46-2.98-2.609-3.893-4.377z"/>
    </g>
</svg>
