<?xml version="1.0" encoding="UTF-8"?>
<svg width="158px" height="39px" viewBox="0 0 158 39" version="1.1" xmlns="http://www.w3.org/2000/svg" xmlns:xlink="http://www.w3.org/1999/xlink">
    <!-- Generator: Sketch 54 (76480) - https://sketchapp.com -->
    <title>Group 2 Copy</title>
    <desc>Created with Sketch.</desc>
    <g id="Page-1" stroke="none" stroke-width="1" fill="none" fill-rule="evenodd">
        <g id="Desktop-HD-Copy-9" transform="translate(-795.000000, -410.000000)" fill="#000000">
            <g id="Group-8" transform="translate(124.000000, 37.000000)">
                <g id="Group-2-Copy" transform="translate(669.000000, 373.000000)">
                    <g id="Bitmap@2x" transform="translate(61.599995, 0.000000)" fill-rule="nonzero">
                        <path d="M7.10729939,0 L7.58063012,0 C8.18238391,0.620099947 9.13638383,1.00536914 9.45927611,1.83461523 C9.09235306,2.674869 8.21540698,3.21791511 7.55127627,3.83801505 C5.23599186,5.48916876 3.53713816,7.79344548 1.57776909,9.81519146 C1.05673837,9.07767614 0.517361494,8.35483774 0,7.61365319 L0,7.3494686 C1.86396907,5.07454572 3.90773043,2.93538436 6.19733024,1.08609221 C6.56792251,0.785215317 6.8798071,0.421961502 7.10729939,0 Z" id="Path"></path>
                        <path d="M30.2931666,0.843923004 C30.4729589,0.832915313 30.8325435,0.8072307 31.0123358,0.792553778 C32.050728,1.88231522 33.1258125,2.93905359 34.3256509,3.84535352 C35.4337585,5.03418418 36.4281199,6.32942253 37.6683198,7.39716859 C37.1839814,7.96589931 36.7400045,8.56765311 36.318043,9.18775306 C34.1054971,6.50921482 31.6104204,4.05816888 28.9282129,1.84929215 C29.3978744,1.53373833 29.8565282,1.20350759 30.2931666,0.843923004 Z" id="Path"></path>
                        <path d="M2.54644593,11.7048451 C4.91676881,8.14936084 8.26677621,5.41211492 11.4810221,2.64918439 C12.0424143,3.12618435 12.6368297,3.55548431 13.2202373,4.00313042 C11.9800374,5.27268416 10.3839222,6.17898408 9.3858915,7.68336857 C10.2518299,8.60067618 11.3122375,9.3014992 12.196522,10.1967914 C17.5829523,15.5648756 22.9950673,20.9036059 28.3814976,26.2680208 C29.0492975,27.0532361 29.6510513,27.8971591 30.4509435,28.5612898 C31.907628,27.5339053 32.9496895,26.0772208 34.1275124,24.7673056 C34.5898355,25.3433747 35.0374816,25.9341208 35.5144816,26.4991823 C32.8873126,29.8675359 29.7868128,32.8359433 26.3964439,35.42642 C25.8533978,34.9530893 25.3250286,34.4467355 24.6902517,34.0908201 C26.0441978,32.9827125 27.497213,31.9333126 28.4952437,30.4619512 C26.5982516,28.6053206 24.7783133,26.6606285 22.7162057,24.9801209 C18.724083,20.9036059 14.4787834,17.0655908 10.6958068,12.7946066 C9.57669148,11.7085144 8.4942685,10.5857299 7.36781475,9.51064534 C6.03221487,10.6847991 5.06353803,12.1891836 3.74628429,13.3853527 C3.36835356,12.8092835 2.93538436,12.2735759 2.54644593,11.7048451 Z" id="Path"></path>
                        <path d="M24.6608979,4.02881504 C25.2699901,3.63620738 25.8533978,3.20690742 26.41479,2.75192284 C29.852859,5.2653457 32.8542895,8.34016082 35.5144816,11.6608144 C35.0338124,12.2258759 34.5898355,12.8202912 34.1238432,13.3963604 C32.9863818,12.0460836 31.8232357,10.7178222 30.5353358,9.50330687 C29.5593205,10.3985991 28.627336,11.3452606 27.8384514,12.4093374 C26.0588747,14.2292757 24.2389364,16.0125217 22.4189981,17.7920985 C21.7034981,17.083937 20.9879982,16.3721063 20.268829,15.667614 C22.8226134,12.8129527 25.857067,10.4683145 28.4952437,7.69804549 C27.4568515,6.25236869 26.0808901,5.08555341 24.6608979,4.02881504 Z" id="Path"></path>
                        <path d="M15.5978987,20.221129 C16.3280755,20.9549751 17.0619216,21.685152 17.8141139,22.3969827 C15.9574832,24.1618825 14.2109295,26.0368593 12.3322836,27.7760745 C11.2645375,28.5869745 10.3215453,29.5373051 9.39689919,30.5023128 C10.3985991,31.9883511 12.020399,32.8542895 13.2165681,34.1605355 C12.6074758,34.5604816 12.0130605,34.9897816 11.4113067,35.4044046 C8.22274545,32.670828 4.96079957,29.948259 2.53910747,26.4808362 C2.92437667,25.8974285 3.35734586,25.3543824 3.74261506,24.7783133 C5.07454572,25.9157747 5.99185333,27.4421746 7.33846091,28.5649591 C8.54563773,27.592613 9.60604533,26.4514823 10.6811298,25.3360363 C12.1414836,23.4647287 13.9871065,21.9530058 15.5978987,20.221129 Z" id="Path"></path>
                        <path d="M28.2824283,36.3253815 C31.1480973,33.8559894 33.9220355,31.2471665 36.3253815,28.3191206 C36.8941122,29.1116744 37.4738506,29.9042282 38.1599967,30.601382 L38.1599967,31.0049973 C38.0829429,31.0233435 37.9325044,31.0563666 37.8554506,31.0710435 C35.9327738,33.1037971 33.9844125,35.1182047 31.9186357,37.0115276 C31.5920742,37.3637737 31.0747127,37.6352968 31.0196743,38.1599967 L30.3188512,38.1599967 C29.885882,37.3160737 29.008936,36.8794353 28.2824283,36.3253815 Z" id="Path"></path>
                        <path d="M0.480669189,30.4986435 C0.851261465,30.0179743 1.19616913,29.5152898 1.54474602,29.0162744 C2.38866903,29.8601974 3.30597664,30.6380743 4.02881504,31.5920742 C5.42679184,33.4230202 7.45220705,34.6155201 8.94925308,36.3547353 C8.41721466,36.7216584 7.88517624,37.0922507 7.35680706,37.4628429 C6.32208407,36.651943 5.23232263,35.8887431 4.3737227,34.8760355 C3.07481512,33.4156817 1.39430757,32.2672126 0.480669189,30.4986435 Z" id="Path"></path>
                    </g>
                    <text id="HADID" font-family="BankGothicBT-Medium, Bank Gothic BT" font-size="15.8399986" font-weight="400" letter-spacing="-0.431999991">
                        <tspan x="103.759991" y="21.6399993">HADID</tspan>
                    </text>
                    <text id="HADID-Copy" font-family="BankGothicBT-Medium, Bank Gothic BT" font-size="15.8399986" font-weight="400" letter-spacing="-0.431999991">
                        <tspan x="0" y="21.6399993">HADID</tspan>
                    </text>
                </g>
            </g>
        </g>
    </g>
</svg>