<svg xmlns="http://www.w3.org/2000/svg" width="366" height="495" viewBox="0 0 366 495">
    <g fill="#B8B8B8" fill-rule="nonzero" opacity=".32">
        <path d="M437.235 33.087l1.476 5.51c-5.385 8.951-6.921 21.266-15.625 27.626-10.985-1.634-20.08-10.139-29.413-15.924-26.559-21.771-58.843-34.317-88.631-50.782 7.011-8.38 13.794-16.926 20.86-25.275l3.094-.829c32.456 14.56 63.882 31.639 92.681 52.49 4.68 3.37 9.906 5.86 15.558 7.184zM285.412 16.901c49.04 16.633 91.584 47.313 134.002 76.321-3.817 8.075-6.973 16.387-10.378 24.627-18.748-10.554-34.363-26.419-55.098-33.4-8.012 13.025-12.881 27.65-20.579 40.82-45.888 79.954-91.353 160.117-137.198 240.06-7.09 10.288-15.073 19.986-20.331 31.442 16.594 13.851 36.908 21.497 55.932 31.194-5.288 7.224-10.793 14.323-15.906 21.684-47.658-20.23-92.123-47.26-133.076-78.874 3.832-7.848 8.097-15.627 10.268-24.182 17.216 12.394 34.056 26.133 54.404 33.217 15.764-28.053 32.8-55.478 45.986-84.913 35.156-59.565 66.727-121.35 104.816-179.073 9.192-16.52 18.929-32.725 27.97-49.297-17.932-11.972-38.574-18.608-56.705-30.296 5.553-6.235 10.46-12.989 15.893-19.33z"/>
        <path d="M445.568 251.89c6.502 5.91 13.352 11.404 20.433 16.56-18.58 48.17-45.094 92.98-75.553 134.56-8.114-3.864-16.457-7.206-24.654-10.864 12.21-17.561 24.083-35.355 34.234-54.254-13.53-8.636-27.522-16.595-42.437-22.51-26.862-15.158-53.421-30.905-79.938-46.663 6.03-10.604 12.104-21.22 18.08-31.856 41.387 20.993 78.323 49.216 118.99 71.463 13.636-16.7 22.953-36.482 30.845-56.435zM228.017 196.465c-6.29 10.89-12.524 21.811-18.486 32.89-26.51-16.3-53.962-30.963-80.242-47.604-12.857-10.015-26.953-18.126-41.163-25.974-14.238 16.442-19.264 38.234-30.784 56.4-6.602-5.91-13.5-11.555-20.25-17.332 21.95-46.077 43.539-92.983 76.495-132.342 8.043 2.701 15.764 6.09 23.722 8.815-9.117 19.234-24.094 34.81-32.993 54.171 15.187 11.149 31.886 20.042 48.332 29.188 26.507 11.307 50.02 28.274 75.369 41.788zM79.026 395.05c37.854 25.899 77.049 50.285 118.806 69.324-7.469 9.154-14.903 18.438-20.889 28.672l-4.714 1.263a110.12 110.12 0 0 1-1.73-3.367c-29.788-16.2-59.444-32.76-88.054-51.075-5.14-2.73-9.94-7.951-16.24-6.955L64 424.688c8.496-7.722 10.84-19.38 15.026-29.639zM60.373 50.405c6.828 2.837 13.835 5.302 20.81 7.823-7.284 12.578-13.559 25.81-22.52 37.312-17.166 22.203-24.836 49.761-40.61 72.838a2987.379 2987.379 0 0 0-18.065-15.21c6.295-14.716 11.854-29.928 21.08-43.211 13.112-19.869 21.35-43.236 39.305-59.552z"/>
    </g>
</svg>
