<?xml version="1.0" encoding="UTF-8"?>
<svg width="27px" height="27px" viewBox="0 0 27 27" version="1.1" xmlns="http://www.w3.org/2000/svg" xmlns:xlink="http://www.w3.org/1999/xlink">
    <!-- Generator: Sketch 54 (76480) - https://sketchapp.com -->
    <title>Group 17 Copy</title>
    <desc>Created with Sketch.</desc>
    <g id="Page-1" stroke="none" stroke-width="1" fill="none" fill-rule="evenodd">
        <g id="Desktop-HD-Copy-7" transform="translate(-1264.000000, -1035.000000)">
            <g id="Group-17-Copy" transform="translate(1277.500000, 1048.500000) rotate(-180.000000) translate(-1277.500000, -1048.500000) translate(1264.000000, 1035.000000)">
                <rect id="Rectangle" stroke="#000000" stroke-width="1.4" x="0.7" y="0.7" width="25.6" height="25.6"></rect>
                <g id="flaticon1575548232-svg" transform="translate(10.000000, 4.000000)" fill="#000000" fill-rule="nonzero">
                    <path d="M10.2637635,9.89109256 L2.27367522,17.6305663 C1.76540909,18.1231446 0.941342691,18.1231446 0.433323316,17.6305663 C-0.0747371833,17.1384263 -0.0747371833,16.3402225 0.433323316,15.8481223 L7.50331787,8.99987053 L0.433528942,2.15185782 C-0.0745315574,1.6595186 -0.0745315574,0.861394454 0.433528942,0.369254416 C0.941589442,-0.123084805 1.76561472,-0.123084805 2.27388084,0.369254416 L10.2639691,8.10884769 C10.5179993,8.35503721 10.6448705,8.67735428 10.6448705,8.99983069 C10.6448705,9.32246645 10.5177526,9.64502254 10.2637635,9.89109256 Z" id="Path"></path>
                </g>
            </g>
        </g>
    </g>
</svg>