<svg xmlns="http://www.w3.org/2000/svg" width="76" height="77" viewBox="0 0 76 77">
    <g fill="#fff" fill-rule="evenodd">
        <g fill-rule="nonzero">
            <path d="M19.99 0h.663c.842.868 2.178 1.408 2.63 2.568-.514 1.177-1.741 1.937-2.671 2.805-3.242 2.312-5.62 5.538-8.363 8.368-.73-1.032-1.485-2.044-2.209-3.082v-.37c2.61-3.185 5.47-6.18 8.676-8.768.52-.422.956-.93 1.274-1.521zM52.45 1.181c.252-.015.756-.05 1.007-.071 1.454 1.525 2.96 3.005 4.639 4.273 1.551 1.665 2.943 3.478 4.68 4.973-.678.796-1.3 1.639-1.89 2.507-3.098-3.75-6.591-7.182-10.347-10.274.658-.442 1.3-.904 1.911-1.408zM13.605 16.387c3.318-4.978 8.008-8.81 12.508-12.678.786.668 1.619 1.269 2.435 1.895-1.736 1.778-3.97 3.047-5.368 5.153 1.213 1.284 2.697 2.265 3.935 3.519 7.541 7.515 15.118 14.989 22.66 22.5.934 1.099 1.776 2.28 2.896 3.21 2.04-1.439 3.499-3.478 5.148-5.312.647.807 1.273 1.634 1.941 2.425-3.678 4.716-8.018 8.871-12.765 12.498-.76-.663-1.5-1.372-2.389-1.87 1.896-1.551 3.93-3.02 5.327-5.08-2.655-2.6-5.203-5.322-8.09-7.675-5.59-5.707-11.533-11.08-16.829-17.06-1.567-1.52-3.082-3.092-4.66-4.597-1.869 1.644-3.225 3.75-5.07 5.424-.528-.806-1.134-1.556-1.679-2.352z"/>
            <path d="M44.565 5.64a28 28 0 0 0 2.456-1.787c4.813 3.518 9.015 7.823 12.74 12.472-.674.791-1.295 1.623-1.948 2.43-1.592-1.89-3.22-3.75-5.024-5.45-1.366 1.253-2.67 2.578-3.775 4.068-2.492 2.548-5.04 5.045-7.587 7.536-1.002-.991-2.004-1.988-3.01-2.974 3.575-3.997 7.823-7.28 11.516-11.158-1.453-2.024-3.38-3.657-5.368-5.137zM31.877 28.31c1.022 1.027 2.05 2.05 3.103 3.046-2.6 2.47-5.045 5.096-7.675 7.53-1.495 1.136-2.815 2.466-4.11 3.817 1.403 2.08 3.674 3.293 5.348 5.122-.853.56-1.685 1.16-2.527 1.741-4.464-3.827-9.03-7.638-12.421-12.493.54-.817 1.145-1.577 1.685-2.383 1.864 1.592 3.149 3.729 5.034 5.3 1.69-1.36 3.174-2.958 4.68-4.52 2.044-2.62 4.628-4.736 6.883-7.16zM49.635 50.856c4.012-3.458 7.896-7.11 11.26-11.21.797 1.11 1.608 2.22 2.569 3.196v.565c-.108.026-.319.072-.426.092-2.692 2.846-5.42 5.666-8.312 8.317-.457.493-1.181.873-1.258 1.608h-.982c-.606-1.181-1.833-1.793-2.85-2.568zM10.713 42.698c.519-.673 1.002-1.377 1.49-2.075 1.181 1.181 2.465 2.27 3.477 3.606 1.958 2.563 4.793 4.233 6.889 6.668a343.89 343.89 0 0 0-2.23 1.551c-1.448-1.135-2.974-2.204-4.176-3.622-1.818-2.044-4.171-3.652-5.45-6.128z"/>
        </g>
        <text font-family="BankGothicBT-Medium, Bank Gothic BT" font-size="22.176" font-weight="400" letter-spacing="-.605" transform="translate(-2)">
            <tspan x="0" y="76.296">HADID</tspan>
        </text>
    </g>
</svg>
