<svg xmlns="http://www.w3.org/2000/svg" width="51" height="51" viewBox="0 0 51 51">
    <g fill="#000" fill-rule="nonzero">
        <path d="M49.355.312H9.13a.804.804 0 0 0-.805.804v29.851a4.045 4.045 0 0 0-.804-.084 4.027 4.027 0 0 0-4.023 4.023v.017a4.03 4.03 0 0 0-1.52 2.397h-.893a.804.804 0 0 0-.805.804v3.218c0 .444.36.805.805.805h.804v2.413a5.638 5.638 0 0 0 5.632 5.632h41.834c.446 0 .805-.36.805-.805V1.117a.804.804 0 0 0-.805-.805zm-.804 1.609v8.045H9.934V1.921h38.617zM4.739 36.03a.805.805 0 0 0 .404-.805l-.013-.093c-.01-.074-.023-.148-.023-.226a2.417 2.417 0 0 1 2.414-2.414c.85 0 1.62.444 2.064 1.187a.804.804 0 0 0 1.211.201 2.383 2.383 0 0 1 1.552-.583c.86 0 1.663.475 2.093 1.24.167.3.508.459.843.399.84-.15 1.7.427 1.86 1.281a.806.806 0 0 0 1.409.369 2.4 2.4 0 0 1 1.84-.876 2.41 2.41 0 0 1 2.265 1.61H3.66c.195-.533.564-1 1.08-1.29zm10.827-7.56c0-7.542 6.135-13.677 13.677-13.677 7.541 0 13.676 6.135 13.676 13.677 0 7.541-6.135 13.677-13.676 13.677-1.136 0-2.246-.153-3.327-.424a.785.785 0 0 0 .109-.38v-1.241a12.06 12.06 0 0 0 3.218.436c6.654 0 12.067-5.414 12.067-12.068s-5.413-12.068-12.067-12.068c-6.655 0-12.068 5.414-12.068 12.068a12 12 0 0 0 1.591 5.984 3.91 3.91 0 0 0-.522.281 3.221 3.221 0 0 0-1.73-1.29 13.59 13.59 0 0 1-.948-4.975zm4.874 5.636a10.367 10.367 0 0 1-1.376-3.223h.524a2.73 2.73 0 0 0 1.943-.804l.47-.47c.431-.431 1.18-.431 1.61 0l.471.47c1.039 1.037 2.846 1.038 3.885 0l.471-.47c.43-.431 1.179-.431 1.61 0l.47.47c1.04 1.037 2.846 1.038 3.885 0l.471-.47c.43-.431 1.179-.431 1.61 0l.47.47a2.73 2.73 0 0 0 1.943.804h.512c-1.094 4.606-5.232 8.046-10.166 8.046-1.104 0-2.182-.18-3.218-.516v-.289a.804.804 0 0 0-.805-.804h-.886a4.027 4.027 0 0 0-3.894-3.214zm-1.656-5.636c0-5.767 4.692-10.459 10.459-10.459 5.766 0 10.458 4.692 10.458 10.459 0 .272-.02.538-.04.804h-.764c-.304 0-.59-.118-.805-.333l-.471-.471c-1.039-1.037-2.846-1.038-3.884 0l-.472.47c-.43.431-1.178.431-1.609 0l-.471-.47c-1.039-1.037-2.846-1.038-3.885 0l-.471.47c-.43.431-1.178.431-1.609 0l-.471-.47c-1.039-1.037-2.846-1.038-3.885 0l-.471.47c-.216.216-.5.334-.805.334h-.773c-.02-.266-.031-.535-.031-.804zM1.889 38.929h22.526v1.609H1.89v-1.61zm16.09 9.654H7.521a4.027 4.027 0 0 1-4.023-4.023v-2.413h19.308v2.413a4.027 4.027 0 0 1-4.022 4.023h-.805zm4.738 0a5.61 5.61 0 0 0 1.698-4.023v-1.596c1.552.517 3.169.792 4.828.792 8.429 0 15.285-6.857 15.285-15.286 0-8.43-6.856-15.286-15.285-15.286-8.43 0-15.286 6.857-15.286 15.286 0 1.309.18 2.588.503 3.833a3.973 3.973 0 0 0-2.112-.615c-.657 0-1.308.168-1.89.484a4.053 4.053 0 0 0-.524-.465V11.575h38.617v37.008H22.717z"/>
        <path d="M13.957 8.357a2.417 2.417 0 0 0 2.413-2.414 2.417 2.417 0 0 0-2.413-2.413 2.417 2.417 0 0 0-2.414 2.413 2.417 2.417 0 0 0 2.414 2.414zm0-3.218a.806.806 0 0 1 0 1.609.806.806 0 0 1 0-1.61zM20.393 8.357a2.417 2.417 0 0 0 2.413-2.414 2.417 2.417 0 0 0-2.413-2.413 2.417 2.417 0 0 0-2.414 2.413 2.417 2.417 0 0 0 2.414 2.414zm0-3.218a.806.806 0 0 1 0 1.609.806.806 0 0 1 0-1.61zM26.829 8.357a2.417 2.417 0 0 0 2.414-2.414 2.417 2.417 0 0 0-2.414-2.413 2.417 2.417 0 0 0-2.414 2.413 2.417 2.417 0 0 0 2.414 2.414zm0-3.218a.806.806 0 0 1 0 1.609.806.806 0 0 1 0-1.61zM45.333 6.748h1.609v1.609h-1.61zM45.333 3.53h1.609v1.609h-1.61zM42.115 3.53h1.609v1.609h-1.61zM38.897 6.748h1.609v1.609h-1.61zM38.897 3.53h1.609v1.609h-1.61zM35.679 6.748h1.609v1.609h-1.61zM35.679 3.53h1.609v1.609h-1.61z"/>
    </g>
</svg>
